0
SECTION
2
HEADER
9
$INSUNITS
70
1
9
$ACADVER
1
AC1014
9
$HANDSEED
5
FFFF
0
ENDSEC
0
SECTION
2
TABLES
0
TABLE
2
VPORT
5
8
100
AcDbSymbolTable
0
ENDTAB
0
TABLE
2
LTYPE
5
5
100
AcDbSymbolTable
0
LTYPE
5
14
100
AcDbSymbolTableRecord
100
AcDbLinetypeTableRecord
2
BYBLOCK
70
0
0
LTYPE
5
15
100
AcDbSymbolTableRecord
100
AcDbLinetypeTableRecord
2
BYLAYER
70
0
0
LTYPE
5
16
100
AcDbSymbolTableRecord
100
AcDbLinetypeTableRecord
2
DASHED
70
0
3
Dashed __ __ __ __ __ __ __ __ __ __ __ __ __ _
72
65
73
2
40
0.75
49
0.5
74
0
49
-0.25
74
0
0
ENDTAB
0
TABLE
2
LAYER
5
2
100
AcDbSymbolTable
70
2
0
LAYER
5
50
100
AcDbSymbolTableRecord
100
AcDbLayerTableRecord
2
0
70
0
62
7
6
CONTINUOUS
0
ENDTAB
0
TABLE
2
STYLE
5
3
100
AcDbSymbolTable
70
1
0
STYLE
5
11
100
AcDbSymbolTableRecord
100
AcDbTextStyleTableRecord
2
STANDARD
70
0
0
ENDTAB
0
TABLE
2
VIEW
5
6
100
AcDbSymbolTable
70
0
0
ENDTAB
0
TABLE
2
UCS
5
7
100
AcDbSymbolTable
70
0
0
ENDTAB
0
TABLE
2
APPID
5
9
100
AcDbSymbolTable
70
2
0
APPID
5
12
100
AcDbSymbolTableRecord
100
AcDbRegAppTableRecord
2
ACAD
70
0
0
ENDTAB
0
TABLE
2
DIMSTYLE
5
A
100
AcDbSymbolTable
70
1
0
ENDTAB
0
TABLE
2
BLOCK_RECORD
5
1
100
AcDbSymbolTable
70
1
0
BLOCK_RECORD
5
1F
100
AcDbSymbolTableRecord
100
AcDbBlockTableRecord
2
*MODEL_SPACE
0
BLOCK_RECORD
5
1B
100
AcDbSymbolTableRecord
100
AcDbBlockTableRecord
2
*PAPER_SPACE
0
ENDTAB
0
ENDSEC
0
SECTION
2
BLOCKS
0
BLOCK
5
20
100
AcDbEntity
100
AcDbBlockBegin
2
*MODEL_SPACE
0
ENDBLK
5
21
100
AcDbEntity
100
AcDbBlockEnd
0
BLOCK
5
1C
100
AcDbEntity
100
AcDbBlockBegin
2
*PAPER_SPACE
0
ENDBLK
5
1D
100
AcDbEntity
100
AcDbBlockEnd
0
ENDSEC
0
SECTION
2
ENTITIES
0
LWPOLYLINE
5
100
100
AcDbEntity
8
0
100
AcDbPolyline
90
14
70
1
43
0.0
10
8.5987495051551885
20
1.4253470820790259
10
10.929340662368199
20
2.530368751447257
42
-0.11114043021932006
10
11.571972397968205
20
2.6749999999999847
10
11.706887199468362
20
2.6749999999999843
10
11.856887199468362
20
2.6749999999999843
10
11.856887199468355
20
0.099999999999984018
10
11.706887199468355
20
0.099999999999984435
10
2.0339530125689471
20
0.10000000000001504
10
1.8557006879920759
20
0.10000000000001349
10
1.1359368212422718
20
0.10000000000001573
10
1.1359368212422767
20
1.3000000000000158
10
1.8557006879920783
20
1.3000000000000136
10
2.0339530125689502
20
1.3000000000000129
10
8.04180200096852
20
1.2999999999999956
42
0.11114043021931953
0
LWPOLYLINE
5
101
100
AcDbEntity
8
0
100
AcDbPolyline
90
12
70
1
43
0.0
10
9.2499999999999325
20
2.6499999999999915
10
9.2499999999999361
20
3.8499999999999934
10
8.3999999999999364
20
3.8499999999999974
10
0.30404962177385447
20
3.8500000000000187
10
0.15404962177385442
20
3.8500000000000187
10
0.15404962177384768
20
1.2750000000000243
10
0.30404962177384354
20
1.275000000000017
10
0.4215076278094434
20
1.2750000000000168
42
0.10951781168324147
10
1.0976968465945605
20
1.4249075407413752
10
3.4436230650019271
20
2.518830901851318
42
-0.10951781168324133
10
4.0352886314389051
20
2.6500000000000052
10
8.3999999999999346
20
2.6499999999999941
0
LWPOLYLINE
5
102
100
AcDbEntity
8
0
100
AcDbPolyline
90
14
70
1
43
0.0
10
8.598749505155185
20
5.3753470820790259
10
10.929340662368203
20
6.4803687514472577
42
-0.1111404302193187
10
11.571972397968198
20
6.6249999999999858
10
11.706887199468364
20
6.624999999999984
10
11.856887199468362
20
6.624999999999984
10
11.856887199468355
20
4.0499999999999847
10
11.706887199468355
20
4.0499999999999847
10
2.0339530125689471
20
4.0500000000000149
10
1.8557006879920759
20
4.050000000000014
10
1.1359368212422718
20
4.0500000000000149
10
1.1359368212422767
20
5.2500000000000151
10
1.8557006879920779
20
5.2500000000000142
10
2.0339530125689502
20
5.2500000000000133
10
8.0418020009685236
20
5.2499999999999956
42
0.11114043021931953
0
LWPOLYLINE
5
103
100
AcDbEntity
8
0
100
AcDbPolyline
90
12
70
1
43
0.0
10
9.2499999999999325
20
6.599999999999989
10
9.2499999999999361
20
7.7999999999999954
10
8.3999999999999364
20
7.799999999999998
10
0.30404962177385447
20
7.8000000000000194
10
0.15404962177385442
20
7.8000000000000194
10
0.15404962177384768
20
5.2250000000000254
10
0.30404962177384282
20
5.2250000000000165
10
0.42150762780945161
20
5.2250000000000165
42
0.10951781168324073
10
1.0976968465945576
20
5.3749075407413747
10
3.4436230650019337
20
6.4688309018513204
42
-0.10951781168324268
10
4.0352886314389043
20
6.600000000000005
10
8.3999999999999346
20
6.5999999999999934
0
LWPOLYLINE
5
104
100
AcDbEntity
8
0
100
AcDbPolyline
90
14
70
1
43
0.0
10
8.5987495051551903
20
9.3253470820790287
10
10.929340662368206
20
10.43036875144726
42
-0.11114043021931859
10
11.571972397968198
20
10.574999999999985
10
11.656887199468361
20
10.574999999999987
10
11.856887199468364
20
10.574999999999985
10
11.856887199468357
20
7.9999999999999858
10
11.656887199468354
20
7.9999999999999867
10
1.983953012568946
20
8.0000000000000178
10
1.8057006879920756
20
8.0000000000000142
10
1.1359368212422718
20
8.000000000000016
10
1.1359368212422767
20
9.2000000000000171
10
1.8057006879920776
20
9.2000000000000171
10
1.9839530125689495
20
9.2000000000000153
10
8.0418020009685112
20
9.1999999999999957
42
0.11114043021931928
0
LWPOLYLINE
5
105
100
AcDbEntity
8
0
100
AcDbPolyline
90
12
70
1
43
0.0
10
0.4215076278094454
20
9.1750000000000167
42
0.10951781168324068
10
1.097696846594564
20
9.3249075407413748
10
3.4436230650019333
20
10.418830901851321
42
-0.10951781168324279
10
4.0352886314389043
20
10.550000000000004
10
8.3999999999999346
20
10.549999999999994
10
9.2499999999999325
20
10.54999999999999
10
9.2499999999999361
20
11.749999999999996
10
8.3999999999999364
20
11.749999999999998
10
0.30404962177385447
20
11.75000000000002
10
0.15404962177385442
20
11.75000000000002
10
0.15404962177384768
20
9.1750000000000256
10
0.30404962177384282
20
9.1750000000000167
0
ENDSEC
0
SECTION
2
OBJECTS
0
DICTIONARY
5
C
100
AcDbDictionary
3
ACAD_GROUP
350
D
3
ACAD_MLINESTYLE
350
17
0
DICTIONARY
5
D
100
AcDbDictionary
0
DICTIONARY
5
1A
330
C
100
AcDbDictionary
0
DICTIONARY
5
17
100
AcDbDictionary
0
ENDSEC
0
EOF
